<?xml version="1.0" standalone="no"?>
<!DOCTYPE svg PUBLIC "-//W3C//DTD SVG 20010904//EN"
 "http://www.w3.org/TR/2001/REC-SVG-20010904/DTD/svg10.dtd">
<svg version="1.0" xmlns="http://www.w3.org/2000/svg"
 width="695.000000pt" height="236.000000pt" viewBox="0 0 695.000000 236.000000"
 preserveAspectRatio="xMidYMid meet">
<metadata>
Created by potrace 1.16, written by Peter Selinger 2001-2019
</metadata>
<g transform="translate(0.000000,236.000000) scale(0.100000,-0.100000)"
fill="#000000" stroke="none">
<path d="M935 2339 c-327 -30 -836 -160 -908 -230 -25 -26 -27 -33 -27 -111 0
-46 5 -448 10 -895 10 -880 8 -855 64 -881 60 -27 532 -134 776 -176 386 -66
723 -51 1115 49 144 37 433 135 470 159 34 22 42 66 50 253 5 135 4 167 -9
192 -32 61 -156 107 -265 98 -75 -6 -170 -38 -195 -66 -19 -21 -36 -110 -36
-188 0 -96 -21 -115 -172 -153 -222 -55 -561 -71 -818 -36 -194 26 -429 80
-453 104 -20 21 -20 27 -18 734 1 392 5 723 8 735 6 25 12 27 173 62 172 37
222 42 495 48 292 6 375 0 605 -43 170 -32 175 -36 183 -160 9 -146 40 -195
135 -215 76 -15 228 -8 269 14 53 28 61 56 69 238 6 145 5 169 -10 201 -10 20
-25 39 -34 43 -42 16 -338 110 -442 140 -280 81 -702 115 -1035 84z"/>
<path d="M3629 2330 c-152 -11 -312 -48 -528 -122 -196 -67 -226 -80 -240
-106 -9 -17 -31 -508 -31 -698 0 -125 4 -129 132 -156 79 -16 831 -156 1518
-283 152 -28 188 -38 203 -56 15 -19 17 -45 17 -214 0 -107 -4 -205 -10 -219
-15 -40 -49 -55 -186 -82 -115 -23 -161 -26 -434 -31 -330 -6 -474 2 -648 39
-58 11 -117 30 -135 42 -31 21 -32 25 -40 116 -9 108 -20 136 -65 167 -76 51
-195 52 -326 2 -92 -34 -92 -33 -87 -243 2 -130 7 -189 17 -208 12 -23 32 -33
127 -62 630 -197 1055 -239 1532 -155 257 46 716 183 736 221 14 27 28 299 29
588 1 214 0 226 -19 241 -11 9 -37 20 -58 23 -21 4 -200 43 -398 86 -198 43
-583 127 -855 185 -272 59 -506 112 -520 119 l-25 12 2 169 c3 201 7 231 34
246 11 5 68 21 127 35 141 32 395 48 637 41 282 -9 437 -40 514 -105 l34 -28
-18 -34 c-25 -49 -16 -122 20 -160 22 -23 42 -31 98 -40 96 -17 220 -9 279 17
73 33 79 48 85 232 6 159 6 160 -18 181 -30 26 -245 118 -399 170 -209 71
-225 73 -625 75 -198 2 -412 -1 -476 -5z"/>
<path d="M6448 2329 c-144 -16 -286 -86 -343 -169 -27 -38 -30 -52 -30 -116 0
-66 3 -76 31 -111 69 -86 172 -125 334 -125 224 -2 409 87 454 217 9 27 16 60
16 74 -1 74 -80 165 -176 200 -47 18 -75 23 -189 35 -16 2 -60 0 -97 -5z"/>
<path d="M6225 1620 c-114 -13 -153 -48 -195 -176 -12 -35 -24 -64 -28 -64 -3
0 -314 32 -691 70 -376 39 -691 69 -699 68 -8 -2 281 -54 644 -116 362 -62
669 -116 681 -120 20 -7 7 -31 -201 -359 -266 -421 -329 -541 -355 -682 -18
-90 29 -163 128 -203 50 -20 74 -22 211 -22 174 0 273 17 453 78 360 120 760
376 716 458 -15 27 -52 39 -87 27 -15 -5 -89 -52 -163 -104 -172 -122 -254
-165 -324 -172 -90 -9 -107 25 -59 120 37 73 404 699 420 716 11 12 28 12 121
-4 59 -10 112 -18 118 -19 9 -1 38 154 30 162 -2 2 -43 9 -92 14 -48 5 -89 11
-90 12 -2 1 2 18 7 37 24 83 -1 177 -58 218 -64 45 -138 63 -277 66 -71 2
-166 0 -210 -5z"/>
</g>
</svg>
